<?xml version="1.0" encoding="UTF-8"?>
<svg width="52px" height="52px" viewBox="0 0 52 52" version="1.1" xmlns="http://www.w3.org/2000/svg" xmlns:xlink="http://www.w3.org/1999/xlink">
    <!-- Generator: Sketch 51 (57462) - http://www.bohemiancoding.com/sketch -->
    <title>Group</title>
    <desc>Created with Sketch.</desc>
    <defs></defs>
    <g id="Page-1" stroke="none" stroke-width="1" fill="none" fill-rule="evenodd">
        <g id="Group" fill="#42B4D6">
            <path d="M51.9524081,44.5888122 C51.8269384,40.6766737 49.4559945,37.345742 46.118069,35.8552987 C47.6842764,34.6488542 48.7118297,32.7533273 48.7118297,30.6046232 C48.7118297,26.9632743 45.8022316,24 42.2220198,24 C38.6439713,24 35.73221,26.9632743 35.73221,30.6046232 C35.73221,32.7533273 36.7597632,34.6444511 38.3238074,35.8508956 C35.820904,36.97148 33.8761243,39.1333934 33,41.7906535 C34.4840032,42.9024317 35.708414,44.3378365 36.5564158,46 L50.918365,46 C51.5154275,46 52,45.5244671 52,44.9146402 C52,44.8023617 51.9848571,44.6922846 51.9524081,44.5888122" id="Fill-72"></path>
            <path d="M19,41.752433 C18.1175397,39.1103743 16.1596485,36.9703067 13.6618738,35.8540369 C15.2316558,34.6474967 16.2615543,32.7540213 16.2615543,30.6051468 C16.2615543,26.9613075 13.3453155,24 9.75693256,24 C6.17071779,24 3.25231085,26.9613075 3.25231085,30.6051468 C3.25231085,32.7518196 4.28220929,34.6430933 5.84982312,35.8496334 C2.41321465,37.3842292 0,40.8651416 0,44.9162983 C0,45.5239718 0.485678421,46.0171561 1.08410362,45.9995424 L15.411617,45.9995424 C16.2658907,44.3262386 17.4996006,42.8665011 19,41.752433" id="Fill-73"></path>
            <path d="M34.9536585,50.5888122 C34.8314856,46.6766737 32.5228381,43.345742 29.2726164,41.8552987 C30.7976718,40.6488542 31.7982262,38.7533273 31.7982262,36.6046232 C31.7982262,32.9632743 28.9650776,30 25.4789357,30 C21.9949002,30 19.1596452,32.9632743 19.1596452,36.6046232 C19.1596452,38.7533273 20.1601996,40.6444511 21.6831486,41.8508956 C18.3444568,43.3853698 16,46.8660062 16,50.9146402 C16,51.5244671 16.4718404,52 17.0532151,52 L33.9467849,52 C34.5281596,52 35,51.5244671 35,50.9146402 C35,50.8023617 34.985255,50.6922846 34.9536585,50.5888122" id="Fill-74"></path>
            <path d="M32.4335714,6.46501963 L17.5,6.46501963 C16.9085714,6.46501963 16.4285714,5.96936812 16.4285714,5.37243131 C16.4285714,4.7776495 16.9085714,4.29492804 17.5,4.29492804 L32.4335714,4.29492804 C33.025,4.29492804 33.505,4.7776495 33.505,5.37243131 C33.505,5.96936812 33.025,6.46501963 32.4335714,6.46501963 M32.4335714,10.7750327 L17.5,10.7750327 C16.9085714,10.7750327 16.4285714,10.2793812 16.4285714,9.68244439 C16.4285714,9.08766259 16.9085714,8.60494112 17.5,8.60494112 L32.4335714,8.60494112 C33.025,8.60494112 33.505,9.08766259 33.505,9.68244439 C33.505,10.2793812 33.025,10.7750327 32.4335714,10.7750327 M32.4335714,15.0850458 L17.5,15.0850458 C16.9085714,15.0850458 16.4285714,14.5893943 16.4285714,13.9924575 C16.4285714,13.3976757 16.9085714,12.9149542 17.5,12.9149542 L32.4335714,12.9149542 C33.025,12.9149542 33.505,13.3976757 33.505,13.9924575 C33.505,14.5893943 33.025,15.0850458 32.4335714,15.0850458 M36.7857143,0 L13.2142857,0 C11.4421429,0 10,1.43523436 10,3.21742477 L10,18.3024706 C10,20.084661 11.4421429,21.5349804 13.2142857,21.5349804 L14.9135714,21.5349804 L21.0292857,27.685369 C21.235,27.8900947 21.5071429,28 21.7857143,28 C21.925,28 22.0642857,27.9719849 22.1971429,27.9181098 C22.5978571,27.7521742 22.8571429,27.3578081 22.8571429,26.9224967 L22.8571429,21.5349804 L36.7857143,21.5349804 C38.5578571,21.5349804 40,20.084661 40,18.3024706 L40,3.21742477 C40,1.43523436 38.5578571,0 36.7857143,0" id="Fill-75"></path>
        </g>
    </g>
</svg>