<?xml version="1.0" encoding="UTF-8"?>
<svg width="26px" height="19px" viewBox="0 0 26 19" version="1.1" xmlns="http://www.w3.org/2000/svg" xmlns:xlink="http://www.w3.org/1999/xlink">
    <!-- Generator: Sketch 51.1 (57501) - http://www.bohemiancoding.com/sketch -->
    <title>small/navigation/hamburger--small</title>
    <desc>Created with Sketch.</desc>
    <defs></defs>
    <g id="Symbols" stroke="none" stroke-width="1" fill="none" fill-rule="evenodd">
        <g id="header-footer/header-auth" transform="translate(-14.000000, -27.000000)" fill="#42B4D6">
            <g id="small/navigation/hamburger--small" transform="translate(10.574219, 20.000000)">
                <path d="M4.66666667,22 L28.3333333,22 C28.8856181,22 29.3333333,22.4477153 29.3333333,23 L29.3333333,24.6666667 C29.3333333,25.2189514 28.8856181,25.6666667 28.3333333,25.6666667 L4.66666667,25.6666667 C4.11438192,25.6666667 3.66666667,25.2189514 3.66666667,24.6666667 L3.66666667,23 C3.66666667,22.4477153 4.11438192,22 4.66666667,22 Z M4.66666667,14.6666667 L28.3333333,14.6666667 C28.8856181,14.6666667 29.3333333,15.1143819 29.3333333,15.6666667 L29.3333333,17.3333333 C29.3333333,17.8856181 28.8856181,18.3333333 28.3333333,18.3333333 L4.66666667,18.3333333 C4.11438192,18.3333333 3.66666667,17.8856181 3.66666667,17.3333333 L3.66666667,15.6666667 C3.66666667,15.1143819 4.11438192,14.6666667 4.66666667,14.6666667 Z M4.66666667,7.33333333 L28.3333333,7.33333333 C28.8856181,7.33333333 29.3333333,7.78104858 29.3333333,8.33333333 L29.3333333,10 C29.3333333,10.5522847 28.8856181,11 28.3333333,11 L4.66666667,11 C4.11438192,11 3.66666667,10.5522847 3.66666667,10 L3.66666667,8.33333333 C3.66666667,7.78104858 4.11438192,7.33333333 4.66666667,7.33333333 Z" id="Icon"></path>
            </g>
        </g>
    </g>
</svg>