<?xml version="1.0" encoding="UTF-8"?>
<svg width="155px" height="30px" viewBox="0 0 155 30" version="1.1" xmlns="http://www.w3.org/2000/svg" xmlns:xlink="http://www.w3.org/1999/xlink">
    <!-- Generator: Sketch 49.3 (51167) - http://www.bohemiancoding.com/sketch -->
    <title>Page 1</title>
    <desc>Created with Sketch.</desc>
    <defs>
        <polygon id="path-1" points="0 0.0002 155.020921 0.0002 155.020921 29.8702008 0 29.8702008"></polygon>
    </defs>
    <g id="DON'T-TOUCH" stroke="none" stroke-width="1" fill="none" fill-rule="evenodd">
        <g id="Page-1">
            <mask id="mask-2" fill="white">
                <use xlink:href="#path-1"></use>
            </mask>
            <g id="Clip-2"></g>
            <path d="M148.106475,10.5790446 L149.664983,10.5793823 C150.273189,10.5793823 150.766576,11.0724315 150.766576,11.680638 C150.766576,12.286143 150.277242,12.7764905 149.673763,12.7808807 L144.968183,12.7808807 C145.435229,11.4979397 146.662111,10.5793823 148.106475,10.5790446 Z M151.325816,19.2631268 L148.105799,19.2638022 C146.654006,19.2634645 145.422058,18.335789 144.961091,17.0420415 L149.664983,17.0420415 L149.664983,17.0427169 C149.669711,17.0427169 149.673763,17.0420415 149.678153,17.0420415 L149.686934,17.0420415 L149.686934,17.0417038 C152.634422,17.0298841 155.020983,14.6372447 155.020983,11.686379 C155.020983,8.72875926 152.623278,6.33105428 149.664983,6.33105428 L149.682881,6.33105428 L148.648491,6.33105428 L148.106475,6.33105428 C143.914881,6.33139198 140.515881,9.72904126 140.515881,13.9209725 L140.515881,15.9218742 C140.515881,20.1134678 143.914206,23.5114548 148.105799,23.5117925 L153.449642,23.5111171 L153.449642,21.3862777 C153.449642,20.2134284 152.500016,19.2631268 151.325816,19.2631268 Z M119.274241,10.5790446 L120.832749,10.5793823 C121.44028,10.5793823 121.933667,11.0724315 121.933667,11.680638 C121.933667,12.286143 121.445008,12.7764905 120.840854,12.7808807 L116.135949,12.7808807 C116.60232,11.4979397 117.829202,10.5793823 119.274241,10.5790446 Z M122.527353,19.2631268 L119.273566,19.2638022 C117.821097,19.2634645 116.589825,18.335789 116.128857,17.0420415 L120.832749,17.0420415 L120.832749,17.0427169 C120.836802,17.0427169 120.84153,17.0420415 120.84592,17.0420415 L120.8547,17.0420415 L120.8547,17.0417038 C123.802189,17.0298841 126.188074,14.6372447 126.188074,11.686379 C126.188074,8.72875926 123.790369,6.33105428 120.832749,6.33105428 L120.850648,6.33105428 L119.816595,6.33105428 L119.274241,6.33105428 C115.081972,6.33139198 111.683647,9.72904126 111.683647,13.9209725 L111.683647,15.9218742 C111.683647,20.1134678 115.081297,23.5114548 119.273566,23.5117925 L124.650504,23.5111171 L124.650504,21.3862777 C124.650504,20.2134284 123.70054,19.2631268 122.527353,19.2631268 Z M69.1537642,6.34793952 C66.1958068,6.34793952 63.7981018,8.7453068 63.7981018,11.703602 C63.7981018,14.6612217 66.1958068,17.0592644 69.1537642,17.0592644 L71.1411577,17.0541988 C71.7490266,17.0541988 72.2424135,17.5469103 72.2424135,18.1554546 C72.2424135,18.7633235 71.7490266,19.2563727 71.1411577,19.2563727 L65.9215904,19.2735956 C64.7480658,19.2735956 63.7981018,20.224235 63.7981018,21.3967465 L63.7981018,23.5215859 L65.9215904,23.5215859 L67.639833,23.522599 L71.1411577,23.522599 C74.1055316,23.522599 76.5086399,21.1198285 76.5086399,18.1554546 C76.5086399,15.1910808 74.1055316,12.7879725 71.1411577,12.7879725 L69.1537642,12.7984413 C68.5458954,12.7984413 68.0525085,12.3053921 68.0525085,11.6971856 C68.0525085,11.088979 68.5458954,10.5962675 69.1537642,10.5962675 L72.841502,10.5959298 C74.0153644,10.5959298 74.9653283,9.64529043 74.9653283,8.47277893 L74.9653283,6.34793952 L72.841502,6.34793952 L69.1537642,6.34793952 Z M140.727622,8.17154613 L139.742874,10.0545888 C139.200183,11.0940446 137.917917,11.4965888 136.877786,10.9525462 L136.753848,10.8890577 C136.335769,10.7006183 135.871763,10.5959298 135.383104,10.5959298 C133.537546,10.5962675 132.041176,12.0923003 132.041176,13.9375201 L132.041176,23.5117925 L129.91735,23.5117925 C128.743825,23.5117925 127.792848,22.5699334 127.792848,21.3967465 L127.792848,6.35638215 L129.918025,6.35638215 C130.657261,6.35638215 131.308356,6.73461166 131.688274,7.30837234 C132.781763,6.69746412 134.04174,6.34793952 135.383104,6.34793952 C136.545484,6.34793952 137.64674,6.60898543 138.630812,7.07603135 L138.845255,7.18781168 L140.727622,8.17154613 Z M89.0449222,15.9387595 C89.0449222,17.7839792 87.549227,19.2803497 85.7029942,19.2806874 C83.8574368,19.2803497 82.361404,17.7839792 82.361404,15.9387595 L82.361404,13.9375201 C82.361404,12.0923003 83.8581122,10.5962675 85.7036696,10.5959298 C87.549227,10.5962675 89.0449222,12.0923003 89.0449222,13.9375201 L89.0449222,15.9387595 Z M85.7036696,6.34793952 C84.3619679,6.34793952 83.1023286,6.69746412 82.0085023,7.30837234 C81.6285843,6.73461166 80.9778269,6.35638215 80.2382531,6.35638215 L78.113076,6.35638215 L78.113076,13.9375201 L78.113076,15.9387595 L78.113076,27.7553926 C78.113076,28.9282418 79.0643907,29.8701008 80.2375777,29.8701008 L82.361404,29.8701008 L82.361404,22.7539826 C83.3701286,23.2493957 84.503804,23.5286777 85.7029942,23.5286777 C89.8952632,23.52834 93.2932502,20.130353 93.2932502,15.9387595 L93.2932502,13.9375201 C93.2932502,9.7459265 89.8959386,6.34827723 85.7036696,6.34793952 Z M57.945,15.9387595 C57.945,17.7839792 56.4486295,19.2803497 54.603072,19.2806874 C52.7575146,19.2803497 51.2614818,17.7839792 51.2614818,15.9387595 L51.2614818,13.9375201 C51.2614818,12.0923003 52.7578523,10.5962675 54.6037474,10.5959298 C56.4489672,10.5962675 57.945,12.0923003 57.945,13.9375201 L57.945,15.9387595 Z M54.6037474,6.34793952 C50.4114785,6.34827723 47.0131538,9.7459265 47.0131538,13.9375201 L47.0131538,15.9387595 C47.0131538,20.130353 50.4111408,23.52834 54.603072,23.5286777 C58.7950033,23.52834 62.193328,20.130353 62.193328,15.9387595 L62.193328,13.9375201 C62.193328,9.7459265 58.7956787,6.34827723 54.6037474,6.34793952 Z M11.8384839,23.5117925 L7.59015595,23.5117925 C3.39856239,23.5117925 -0.0001,20.1134678 -0.0001,15.9218742 L-0.0001,1.31714922 L2.1244017,1.31714922 C3.29758862,1.31714922 4.24789028,2.26711318 4.24789028,3.4403001 L4.24822799,15.9218742 C4.24822799,17.7674316 5.74459852,19.2634645 7.59015595,19.2638022 L9.55559863,19.2638022 C10.8169265,19.2638022 11.8384839,20.2856973 11.8384839,21.5466875 L11.8384839,23.5117925 Z M15.5677595,0.0001 C14.2456447,0.0001 13.1744446,1.06859839 13.1744446,2.39138859 C13.1744446,3.71249027 14.2456447,4.78436571 15.5677595,4.78436571 C16.8891988,4.78436571 17.9597235,3.71249027 17.9597235,2.39138859 C17.9597235,1.06859839 16.8891988,0.0001 15.5677595,0.0001 Z M15.5680972,6.34793952 L13.4432578,6.34793952 L13.4432578,21.3967465 C13.4432578,22.5699334 14.3938971,23.5117925 15.5674217,23.5117925 L17.691248,23.5117925 L17.691248,8.47142811 C17.691248,7.29790348 16.7406087,6.34793952 15.5680972,6.34793952 Z M45.40838,13.939884 L45.40838,23.5117925 L43.2835406,23.5117925 C42.1106913,23.5117925 41.160052,22.5618285 41.160052,21.3889793 L41.160052,13.939884 C41.160052,12.0939889 39.6636814,10.5982937 37.8177863,10.5982937 C35.9722289,10.5982937 34.4761961,12.0939889 34.4761961,13.939884 L34.4761961,15.9218742 C34.4761961,20.1134678 31.0775337,23.5114548 26.8856024,23.5117925 C22.6936711,23.5114548 19.2960219,20.1134678 19.2960219,15.9218742 L19.2960219,1.31714922 L21.4198481,1.31714922 C22.5930351,1.31714922 23.5436744,2.26711318 23.5436744,3.4403001 L23.5436744,6.34793952 L27.0855237,6.34793952 L27.0855237,8.47244122 C27.0855237,9.64562814 26.1429893,10.5959298 24.9704778,10.5959298 L23.5436744,10.5959298 L23.5443498,15.9218742 C23.5443498,17.7670939 25.0403827,19.2634645 26.8856024,19.2638022 C28.7314975,19.2634645 30.2278681,17.7670939 30.2278681,15.9218742 L30.2278681,1.31714922 L32.3523698,1.31714922 C33.5255567,1.31714922 34.4758583,2.26711318 34.4758583,3.4403001 L34.4758583,7.12432315 C35.4842453,6.62891002 36.6189338,6.34996575 37.8177863,6.34962805 C42.0100553,6.35030346 45.40838,9.74829044 45.40838,13.939884 Z M99.146352,15.9218742 L99.146352,13.939884 C99.146352,12.0939889 100.642385,10.5982937 102.488618,10.5982937 C104.334175,10.5982937 105.830546,12.0939889 105.830546,13.939884 L105.830546,21.3889793 C105.830546,22.5618285 106.781185,23.5117925 107.954034,23.5117925 L110.079211,23.5117925 L110.079211,13.939884 C110.079211,9.74829044 106.680211,6.35030346 102.488618,6.34962805 C101.289427,6.34996575 100.155077,6.62891002 99.146352,7.12432315 L99.146352,3.4403001 C99.146352,2.26711318 98.1960503,1.31714922 97.0225257,1.31714922 L94.898024,1.31714922 L94.898024,15.9218742 L94.898024,21.4051891 C94.898024,22.5787137 95.8486633,23.5286777 97.0215126,23.5286777 L99.146352,23.5286777 L99.146352,21.4051891 L99.146352,15.9218742 Z" id="Fill-1" fill="#42B4D6" mask="url(#mask-2)"></path>
        </g>
    </g>
</svg>