<?xml version="1.0" standalone="no"?>
<!DOCTYPE svg PUBLIC "-//W3C//DTD SVG 20010904//EN"
 "http://www.w3.org/TR/2001/REC-SVG-20010904/DTD/svg10.dtd">
<svg version="1.0" xmlns="http://www.w3.org/2000/svg"
 width="1536.000000pt" height="1536.000000pt" viewBox="0 0 1536.000000 1536.000000"
 preserveAspectRatio="xMidYMid meet">
<metadata>
Created by potrace 1.11, written by Peter Selinger 2001-2013
</metadata>
<g transform="translate(0.000000,1536.000000) scale(0.100000,-0.100000)"
fill="#000000" stroke="none">
<path d="M0 7680 l0 -7680 7680 0 7680 0 0 7680 0 7680 -7680 0 -7680 0 0
-7680z m10300 4239 c304 -77 547 -326 621 -637 26 -106 28 -274 6 -378 -72
-336 -333 -599 -662 -669 -39 -8 -117 -15 -175 -15 -182 0 -323 43 -470 141
-446 298 -516 931 -146 1317 217 227 525 317 826 241z m-4795 -482 c245 -83
418 -256 503 -502 l27 -80 6 -2405 c5 -2154 7 -2413 21 -2482 92 -444 392
-789 806 -928 164 -55 223 -60 691 -60 450 0 512 -5 637 -45 227 -71 441 -279
514 -500 46 -139 50 -179 50 -598 l0 -398 -887 4 c-951 4 -928 3 -1194 58
-500 103 -975 363 -1349 738 -219 219 -386 453 -520 726 -167 341 -255 671
-280 1051 -6 89 -10 1214 -10 2802 l0 2653 453 -3 452 -3 80 -28z m4748 -1793
c93 -20 236 -90 312 -151 118 -96 207 -231 257 -394 l23 -74 3 -2788 2 -2789
-437 4 c-408 4 -443 6 -514 26 -285 78 -495 301 -554 587 -13 65 -15 400 -15
2835 l0 2760 426 0 c351 0 438 -3 497 -16z"/>
</g>
</svg>
